<mxfile host="app.diagrams.net" modified="2023-06-15T08:56:40.175Z" agent="Mozilla/5.0 (Windows NT 10.0; Win64; x64) AppleWebKit/537.36 (KHTML, like Gecko) Chrome/114.0.0.0 Safari/537.36" version="21.4.0" etag="yHOKSJ09--HUEIWi80iq" type="github">
  <diagram name="第 1 页" id="lMWb8DC5n6l3s_2p28Jz">
    <mxGraphModel>
      <root>
        <mxCell id="0" />
        <mxCell id="1" parent="0" />
      </root>
    </mxGraphModel>
  </diagram>
</mxfile>
